<svg xmlns="http://www.w3.org/2000/svg" width="1024" height="1024" viewBox="0 0 1024 1024">
  <rect width="1024" height="1024" rx="224" fill="#F7F3EA"/>
  <circle cx="512" cy="512" r="326" fill="#2F6F64"/>
  <path d="M314 502c0-109 88-197 197-197s197 88 197 197-88 197-197 197-197-88-197-197Z" fill="#FFF9F0"/>
  <path d="M382 516c0-72 58-130 130-130s130 58 130 130-58 130-130 130-130-58-130-130Z" fill="#E5B85E"/>
  <path d="M509 331c-2-82 44-145 119-177 42 77 28 153-40 213-27-25-53-36-79-36Z" fill="#83CFC1"/>
  <path d="M466 330c-77-38-118-104-111-190 93 6 155 51 181 130-28 12-51 32-70 60Z" fill="#C15C3B"/>
  <path d="M306 748h412c31 0 56 25 56 56v4H250v-4c0-31 25-56 56-56Z" fill="#164C45"/>
</svg>
