<svg xmlns="http://www.w3.org/2000/svg" width="1242" height="2436" viewBox="0 0 1242 2436">
  <rect width="1242" height="2436" fill="#F7F3EA"/>
  <circle cx="621" cy="1120" r="240" fill="#2F6F64"/>
  <path d="M477 1112c0-80 64-144 144-144s144 64 144 144-64 144-144 144-144-64-144-144Z" fill="#FFF9F0"/>
  <path d="M529 1122c0-51 41-92 92-92s92 41 92 92-41 92-92 92-92-41-92-92Z" fill="#E5B85E"/>
  <path d="M619 934c-1-63 35-111 92-135 32 59 21 117-31 163-20-19-41-28-61-28Z" fill="#83CFC1"/>
  <path d="M586 934c-59-29-90-80-85-145 71 5 119 39 139 99-22 9-39 24-54 46Z" fill="#C15C3B"/>
</svg>
